<svg width="280" height="270" viewBox="0 0 280 270" fill="none" xmlns="http://www.w3.org/2000/svg">
<g clip-path="url(#clip0)">
<path opacity="0.1" d="M273.85 268.993C276.217 266.196 273.478 258.425 267.734 251.636C261.989 244.847 255.415 241.61 253.048 244.407C250.682 247.203 253.421 254.974 259.165 261.763C264.909 268.552 271.484 271.789 273.85 268.993Z" fill="#96E92C"/>
<path d="M264.491 257.835C266.287 257.835 267.743 255.581 267.743 252.801C267.743 250.022 266.287 247.768 264.491 247.768C262.694 247.768 261.238 250.022 261.238 252.801C261.238 255.581 262.694 257.835 264.491 257.835Z" fill="#3F3D56"/>
<path d="M264.491 251.684C266.287 251.684 267.743 249.43 267.743 246.651C267.743 243.871 266.287 241.618 264.491 241.618C262.694 241.618 261.238 243.871 261.238 246.651C261.238 249.43 262.694 251.684 264.491 251.684Z" fill="#3F3D56"/>
<path d="M264.491 245.533C266.287 245.533 267.743 243.28 267.743 240.5C267.743 237.72 266.287 235.467 264.491 235.467C262.694 235.467 261.238 237.72 261.238 240.5C261.238 243.28 262.694 245.533 264.491 245.533Z" fill="#3F3D56"/>
<path d="M264.491 239.382C266.287 239.382 267.743 237.129 267.743 234.349C267.743 231.569 266.287 229.316 264.491 229.316C262.694 229.316 261.238 231.569 261.238 234.349C261.238 237.129 262.694 239.382 264.491 239.382Z" fill="#3F3D56"/>
<path d="M264.491 233.232C266.287 233.232 267.743 230.978 267.743 228.198C267.743 225.419 266.287 223.165 264.491 223.165C262.694 223.165 261.238 225.419 261.238 228.198C261.238 230.978 262.694 233.232 264.491 233.232Z" fill="#3F3D56"/>
<path d="M264.491 227.081C266.287 227.081 267.743 224.827 267.743 222.048C267.743 219.268 266.287 217.015 264.491 217.015C262.694 217.015 261.238 219.268 261.238 222.048C261.238 224.827 262.694 227.081 264.491 227.081Z" fill="#3F3D56"/>
<path d="M264.491 220.93C266.287 220.93 267.743 218.677 267.743 215.897C267.743 213.117 266.287 210.864 264.491 210.864C262.694 210.864 261.238 213.117 261.238 215.897C261.238 218.677 262.694 220.93 264.491 220.93Z" fill="#3F3D56"/>
<path d="M276.666 173.805C277.111 173.137 277.516 172.433 277.878 171.699L269.331 170.04L278.575 170.119C279.462 167.839 279.946 165.369 279.999 162.86C280.051 160.352 279.67 157.857 278.879 155.528L266.479 163.133L277.909 153.196C276.838 151.006 275.397 149.1 273.676 147.596C271.954 146.093 269.989 145.025 267.903 144.459C265.817 143.893 263.655 143.841 261.551 144.306C259.447 144.771 257.447 145.744 255.675 147.163C253.903 148.582 252.398 150.417 251.252 152.554C250.107 154.691 249.347 157.084 249.018 159.584C248.69 162.083 248.801 164.636 249.344 167.083C249.887 169.53 250.851 171.818 252.176 173.805C251.483 174.845 250.887 175.97 250.4 177.162L261.493 183.968L249.672 179.275C248.842 182.177 248.637 185.278 249.076 188.297C249.515 191.316 250.583 194.158 252.185 196.567C250.377 199.283 249.253 202.545 248.94 205.981C248.627 209.416 249.139 212.887 250.416 215.995C251.694 219.103 253.685 221.724 256.163 223.557C258.642 225.391 261.506 226.363 264.43 226.363C267.354 226.363 270.218 225.391 272.696 223.557C275.175 221.724 277.166 219.103 278.444 215.995C279.721 212.887 280.232 209.416 279.92 205.981C279.607 202.545 278.483 199.283 276.675 196.567C278.835 193.321 280.009 189.312 280.009 185.182C280.009 181.053 278.835 177.044 276.675 173.798L276.666 173.805Z" fill="#96E92C"/>
<path opacity="0.1" d="M248.842 185.19C248.836 189.32 250.011 193.332 252.176 196.574C250.368 199.29 249.244 202.552 248.931 205.988C248.618 209.424 249.13 212.894 250.407 216.002C251.685 219.11 253.676 221.731 256.154 223.565C258.633 225.398 261.497 226.37 264.421 226.37C267.345 226.37 270.209 225.398 272.687 223.565C275.165 221.731 277.157 219.11 278.434 216.002C279.712 212.894 280.223 209.424 279.911 205.988C279.598 202.552 278.473 199.29 276.666 196.574C278.754 193.443 248.842 183.123 248.842 185.19Z" fill="black"/>
<path d="M256.713 0V257.924L182.758 245.744L92.8565 267.421L92.1321 267.596L20.6014 244.311V20.0608L94.8599 0L176.09 20.0608L179.178 19.2906L256.713 0Z" fill="#444053"/>
<path d="M244.286 14.0856V244.86L178.117 233.962L97.6787 253.357L97.0301 253.511L33.0284 232.68V32.0328L99.4731 14.0856L172.149 32.0328L174.914 31.345L244.286 14.0856Z" fill="white"/>
<path opacity="0.1" d="M182.758 245.744L92.8565 267.421L94.8599 0L176.09 20.0608L179.178 19.2906L182.758 245.744Z" fill="black"/>
<g opacity="0.3">
<path opacity="0.3" d="M173.78 49.4354L173.816 124.484H200.186V93.6766H245.347L250.651 85.6379" stroke="#444053" stroke-width="3" stroke-miterlimit="10"/>
<path opacity="0.3" d="M26.9664 73.2576H125.018L131.08 70.0336H133.505V142.396H175.938L177.757 148.844V181.442H210.491V221.743" stroke="#444053" stroke-width="3" stroke-miterlimit="10"/>
<path opacity="0.3" d="M146.456 221.743V142.396" stroke="#444053" stroke-width="3" stroke-miterlimit="10"/>
<path opacity="0.3" d="M250.651 200.486H146.456" stroke="#444053" stroke-width="3" stroke-miterlimit="10"/>
<path opacity="0.3" d="M224.555 49.4354V221.743" stroke="#444053" stroke-width="3" stroke-miterlimit="10"/>
<path opacity="0.3" d="M26.6633 185.254H250.651" stroke="#444053" stroke-width="3" stroke-miterlimit="10"/>
<path opacity="0.3" d="M53.9238 221.743V49.4354" stroke="#444053" stroke-width="3" stroke-miterlimit="10"/>
<path opacity="0.3" d="M105.99 49.4354V221.743" stroke="#444053" stroke-width="3" stroke-miterlimit="10"/>
<path opacity="0.3" d="M26.9664 92.9601L200.186 93.6765" stroke="#444053" stroke-width="3" stroke-miterlimit="10"/>
<path opacity="0.3" d="M77.3804 49.7471V221.743" stroke="#444053" stroke-width="3" stroke-miterlimit="10"/>
<path opacity="0.3" d="M26.6633 132.838H105.99L146.456 185.254" stroke="#444053" stroke-width="3" stroke-miterlimit="10"/>
<path opacity="0.3" d="M155.221 49.4354V142.396" stroke="#444053" stroke-width="3" stroke-miterlimit="10"/>
<path opacity="0.3" d="M146.456 159.046H250.651" stroke="#444053" stroke-width="3" stroke-miterlimit="10"/>
</g>
<path d="M177.605 158.337H146.992V142.575L175.938 142.396L177.757 148.485L177.605 158.337Z" fill="#96E92C"/>
<path d="M162.45 76.6608C158.007 76.6608 153.745 78.7471 150.603 82.4609C147.46 86.1746 145.695 91.2116 145.695 96.4636C145.695 107.4 162.45 142.933 162.45 142.933C162.45 142.933 179.205 107.415 179.205 96.4636C179.205 91.2116 177.44 86.1746 174.298 82.4609C171.156 78.7471 166.894 76.6608 162.45 76.6608ZM162.45 104.911C160.992 104.911 159.567 104.4 158.355 103.442C157.143 102.485 156.198 101.124 155.64 99.5325C155.082 97.9406 154.936 96.1889 155.221 94.4989C155.505 92.8089 156.207 91.2565 157.238 90.0381C158.269 88.8197 159.582 87.99 161.012 87.6538C162.442 87.3177 163.924 87.4902 165.271 88.1496C166.618 88.809 167.769 89.9256 168.579 91.3583C169.389 92.791 169.822 94.4754 169.822 96.1985C169.821 98.5085 169.044 100.724 167.662 102.357C166.279 103.99 164.405 104.907 162.45 104.907V104.911Z" fill="#96E92C"/>
<path opacity="0.1" d="M162.45 76.6608C158.007 76.6608 153.745 78.7471 150.603 82.4609C147.46 86.1746 145.695 91.2116 145.695 96.4636C145.695 107.4 162.45 142.933 162.45 142.933C162.45 142.933 179.205 107.415 179.205 96.4636C179.205 91.2116 177.44 86.1746 174.298 82.4609C171.156 78.7471 166.894 76.6608 162.45 76.6608ZM162.45 104.911C160.992 104.911 159.567 104.4 158.355 103.442C157.143 102.485 156.198 101.124 155.64 99.5325C155.082 97.9406 154.936 96.1889 155.221 94.4989C155.505 92.8089 156.207 91.2565 157.238 90.0381C158.269 88.8197 159.582 87.99 161.012 87.6538C162.442 87.3177 163.924 87.4902 165.271 88.1496C166.618 88.809 167.769 89.9256 168.579 91.3583C169.389 92.791 169.822 94.4754 169.822 96.1985C169.821 98.5085 169.044 100.724 167.662 102.357C166.279 103.99 164.405 104.907 162.45 104.907V104.911Z" fill="black"/>
<path d="M162.45 79.5266C158.007 79.5266 153.745 81.613 150.603 85.3267C147.46 89.0405 145.695 94.0774 145.695 99.3295C145.695 110.266 162.45 145.799 162.45 145.799C162.45 145.799 179.205 110.28 179.205 99.3295C179.205 94.0774 177.44 89.0405 174.298 85.3267C171.156 81.613 166.894 79.5266 162.45 79.5266ZM162.45 107.776C160.992 107.776 159.567 107.266 158.355 106.308C157.143 105.351 156.198 103.99 155.64 102.398C155.082 100.806 154.936 99.0547 155.221 97.3647C155.505 95.6747 156.207 94.1224 157.238 92.904C158.269 91.6856 159.582 90.8558 161.012 90.5197C162.442 90.1835 163.924 90.356 165.271 91.0154C166.618 91.6748 167.769 92.7915 168.579 94.2242C169.389 95.6569 169.822 97.3413 169.822 99.0644C169.821 101.374 169.044 103.589 167.662 105.222C166.279 106.855 164.405 107.773 162.45 107.773V107.776Z" fill="#96E92C"/>
<path opacity="0.1" d="M156.771 267.265C161.914 264.647 165.343 260.495 164.431 257.991C163.518 255.487 158.61 255.58 153.467 258.197C148.324 260.815 144.895 264.967 145.807 267.471C146.72 269.975 151.629 269.883 156.771 267.265Z" fill="#96E92C"/>
<path d="M155 264.247C156.239 264.247 157.243 262.694 157.243 260.779C157.243 258.864 156.239 257.312 155 257.312C153.762 257.312 152.757 258.864 152.757 260.779C152.757 262.694 153.762 264.247 155 264.247Z" fill="#3F3D56"/>
<path d="M155 260.005C156.239 260.005 157.243 258.453 157.243 256.538C157.243 254.623 156.239 253.07 155 253.07C153.762 253.07 152.757 254.623 152.757 256.538C152.757 258.453 153.762 260.005 155 260.005Z" fill="#3F3D56"/>
<path d="M155 255.768C156.239 255.768 157.243 254.215 157.243 252.3C157.243 250.385 156.239 248.832 155 248.832C153.762 248.832 152.757 250.385 152.757 252.3C152.757 254.215 153.762 255.768 155 255.768Z" fill="#3F3D56"/>
<path d="M155 251.53C156.239 251.53 157.243 249.977 157.243 248.062C157.243 246.147 156.239 244.594 155 244.594C153.762 244.594 152.757 246.147 152.757 248.062C152.757 249.977 153.762 251.53 155 251.53Z" fill="#3F3D56"/>
<path d="M155 247.288C156.239 247.288 157.243 245.736 157.243 243.821C157.243 241.906 156.239 240.353 155 240.353C153.762 240.353 152.757 241.906 152.757 243.821C152.757 245.736 153.762 247.288 155 247.288Z" fill="#3F3D56"/>
<path d="M155 243.051C156.239 243.051 157.243 241.498 157.243 239.583C157.243 237.668 156.239 236.115 155 236.115C153.762 236.115 152.757 237.668 152.757 239.583C152.757 241.498 153.762 243.051 155 243.051Z" fill="#3F3D56"/>
<path d="M155 238.813C156.239 238.813 157.243 237.26 157.243 235.345C157.243 233.43 156.239 231.877 155 231.877C153.762 231.877 152.757 233.43 152.757 235.345C152.757 237.26 153.762 238.813 155 238.813Z" fill="#3F3D56"/>
<path d="M146.607 206.332C146.302 205.877 146.022 205.399 145.771 204.899L151.663 203.753L145.298 203.81C144.688 202.239 144.355 200.536 144.319 198.808C144.284 197.079 144.547 195.36 145.092 193.755L153.639 198.978L145.759 192.128C146.497 190.619 147.49 189.306 148.676 188.271C149.863 187.235 151.217 186.499 152.654 186.11C154.092 185.72 155.582 185.684 157.031 186.005C158.481 186.325 159.859 186.995 161.08 187.973C162.301 188.951 163.339 190.216 164.128 191.688C164.917 193.161 165.441 194.81 165.667 196.532C165.894 198.255 165.818 200.014 165.443 201.7C165.069 203.386 164.405 204.963 163.493 206.332C163.966 207.05 164.372 207.826 164.705 208.646L157.064 213.343L165.218 210.119C165.79 212.119 165.932 214.256 165.63 216.337C165.327 218.418 164.591 220.377 163.487 222.037C164.733 223.909 165.508 226.158 165.724 228.526C165.94 230.894 165.587 233.287 164.707 235.429C163.827 237.572 162.454 239.379 160.746 240.642C159.037 241.906 157.063 242.577 155.047 242.577C153.032 242.577 151.057 241.906 149.349 240.642C147.641 239.379 146.268 237.572 145.387 235.429C144.507 233.287 144.154 230.894 144.37 228.526C144.586 226.158 145.361 223.909 146.607 222.037C145.119 219.799 144.31 217.036 144.31 214.19C144.31 211.344 145.119 208.58 146.607 206.343V206.332Z" fill="#96E92C"/>
<path opacity="0.1" d="M165.784 214.167C165.789 217.014 164.979 219.78 163.487 222.015C164.733 223.887 165.508 226.136 165.724 228.504C165.94 230.873 165.587 233.265 164.707 235.408C163.827 237.55 162.454 239.357 160.746 240.621C159.037 241.885 157.063 242.555 155.047 242.555C153.032 242.555 151.057 241.885 149.349 240.621C147.641 239.357 146.268 237.55 145.387 235.408C144.507 233.265 144.154 230.873 144.37 228.504C144.586 226.136 145.361 223.887 146.607 222.015C145.168 219.866 165.784 212.755 165.784 214.167Z" fill="black"/>
<path opacity="0.1" d="M25.0084 261.111C27.3746 258.314 24.636 250.544 18.8917 243.754C13.1474 236.965 6.57254 233.729 4.2064 236.525C1.84025 239.322 4.5788 247.092 10.3231 253.882C16.0674 260.671 22.6423 263.908 25.0084 261.111Z" fill="#96E92C"/>
<path d="M15.6489 249.954C17.445 249.954 18.9011 247.7 18.9011 244.92C18.9011 242.141 17.445 239.887 15.6489 239.887C13.8527 239.887 12.3967 242.141 12.3967 244.92C12.3967 247.7 13.8527 249.954 15.6489 249.954Z" fill="#3F3D56"/>
<path d="M15.6489 243.803C17.445 243.803 18.9011 241.549 18.9011 238.77C18.9011 235.99 17.445 233.737 15.6489 233.737C13.8527 233.737 12.3967 235.99 12.3967 238.77C12.3967 241.549 13.8527 243.803 15.6489 243.803Z" fill="#3F3D56"/>
<path d="M15.6489 237.652C17.445 237.652 18.9011 235.399 18.9011 232.619C18.9011 229.839 17.445 227.586 15.6489 227.586C13.8527 227.586 12.3967 229.839 12.3967 232.619C12.3967 235.399 13.8527 237.652 15.6489 237.652Z" fill="#3F3D56"/>
<path d="M15.6489 231.501C17.445 231.501 18.9011 229.248 18.9011 226.468C18.9011 223.688 17.445 221.435 15.6489 221.435C13.8527 221.435 12.3967 223.688 12.3967 226.468C12.3967 229.248 13.8527 231.501 15.6489 231.501Z" fill="#3F3D56"/>
<path d="M15.6489 225.35C17.445 225.35 18.9011 223.097 18.9011 220.317C18.9011 217.538 17.445 215.284 15.6489 215.284C13.8527 215.284 12.3967 217.538 12.3967 220.317C12.3967 223.097 13.8527 225.35 15.6489 225.35Z" fill="#3F3D56"/>
<path d="M15.6489 219.2C17.445 219.2 18.9011 216.946 18.9011 214.167C18.9011 211.387 17.445 209.134 15.6489 209.134C13.8527 209.134 12.3967 211.387 12.3967 214.167C12.3967 216.946 13.8527 219.2 15.6489 219.2Z" fill="#3F3D56"/>
<path d="M15.6489 213.049C17.445 213.049 18.9011 210.795 18.9011 208.016C18.9011 205.236 17.445 202.983 15.6489 202.983C13.8527 202.983 12.3967 205.236 12.3967 208.016C12.3967 210.795 13.8527 213.049 15.6489 213.049Z" fill="#3F3D56"/>
<path d="M27.8243 165.924C28.2693 165.256 28.6744 164.552 29.0367 163.818L20.4894 162.159L29.7338 162.238C30.6206 159.958 31.1049 157.488 31.157 154.979C31.2091 152.471 30.828 149.976 30.0369 147.647L17.6373 155.252L29.067 145.315C27.9964 143.125 26.5554 141.219 24.834 139.715C23.1125 138.212 21.1475 137.144 19.0615 136.578C16.9755 136.012 14.8131 135.96 12.7093 136.425C10.6055 136.89 8.60531 137.863 6.83347 139.282C5.06163 140.701 3.55613 142.536 2.41085 144.673C1.26556 146.81 0.505048 149.203 0.17673 151.703C-0.151588 154.202 -0.0406703 156.755 0.502561 159.202C1.04579 161.649 2.00969 163.937 3.33416 165.924C2.6413 166.964 2.04578 168.089 1.55802 169.281L12.6513 176.087L0.830585 171.394C0.000580583 174.296 -0.204331 177.397 0.234379 180.416C0.673089 183.435 1.74159 186.277 3.34325 188.686C1.53573 191.402 0.411324 194.664 0.0985831 198.1C-0.214158 201.535 0.29739 205.006 1.57474 208.114C2.85209 211.222 4.84369 213.843 7.32184 215.676C9.79998 217.51 12.6647 218.482 15.5883 218.482C18.512 218.482 21.3767 217.51 23.8548 215.676C26.333 213.843 28.3246 211.222 29.6019 208.114C30.8793 205.006 31.3908 201.535 31.0781 198.1C30.7653 194.664 29.6409 191.402 27.8334 188.686C29.9931 185.44 31.1673 181.431 31.1673 177.301C31.1673 173.172 29.9931 169.163 27.8334 165.917L27.8243 165.924Z" fill="#96E92C"/>
<path opacity="0.1" d="M2.17958e-05 177.308C-0.00583553 181.439 1.16902 185.451 3.33408 188.693C1.52656 191.409 0.402148 194.671 0.0894068 198.107C-0.223334 201.543 0.288214 205.013 1.56557 208.121C2.84292 211.229 4.83452 213.85 7.31266 215.684C9.79081 217.517 12.6555 218.489 15.5792 218.489C18.5028 218.489 21.3675 217.517 23.8456 215.684C26.3238 213.85 28.3154 211.229 29.5927 208.121C30.8701 205.013 31.3816 201.543 31.0689 198.107C30.7562 194.671 29.6317 191.409 27.8242 188.693C29.9126 185.562 2.17958e-05 175.241 2.17958e-05 177.308Z" fill="black"/>
</g>
<defs>
<clipPath id="clip0">
<rect width="280" height="270" fill="white"/>
</clipPath>
</defs>
</svg>
