<svg width="118" height="19" viewBox="0 0 118 19" fill="none" xmlns="http://www.w3.org/2000/svg">
<path d="M5.9 18.2C4.71667 18.2 3.725 17.975 2.925 17.525C2.14167 17.0583 1.54167 16.475 1.125 15.775C0.708333 15.0583 0.458333 14.325 0.375 13.575H2.325C2.39167 14.0083 2.56667 14.4417 2.85 14.875C3.13333 15.3083 3.53333 15.6667 4.05 15.95C4.56667 16.2333 5.21667 16.375 6 16.375C6.75 16.375 7.35 16.2583 7.8 16.025C8.26667 15.775 8.60833 15.45 8.825 15.05C9.05833 14.65 9.21667 14.225 9.3 13.775C9.38333 13.3083 9.425 12.8667 9.425 12.45V1.45H11.3V12.525C11.3 13.4917 11.125 14.4083 10.775 15.275C10.4417 16.1417 9.875 16.85 9.075 17.4C8.29167 17.9333 7.23333 18.2 5.9 18.2ZM19.415 18.2C18.565 18.2 17.7567 18 16.99 17.6C16.2234 17.1833 15.5984 16.575 15.115 15.775C14.6484 14.9583 14.415 13.9583 14.415 12.775V5.5H16.29V12.725C16.29 13.8583 16.615 14.775 17.265 15.475C17.9317 16.1583 18.7734 16.5 19.79 16.5C20.49 16.5 21.1234 16.3417 21.69 16.025C22.2567 15.6917 22.7067 15.2417 23.04 14.675C23.39 14.1083 23.565 13.45 23.565 12.7V5.5H25.44V18H23.565V16.05C23.115 16.65 22.565 17.1583 21.915 17.575C21.265 17.9917 20.4317 18.2 19.415 18.2ZM35.0502 18.2C34.0169 18.2 33.1252 18 32.3752 17.6C31.6419 17.2 31.0419 16.6667 30.5752 16V18H28.7002V0.499999H30.5752V7.525C31.0419 6.84167 31.6419 6.3 32.3752 5.9C33.1252 5.5 34.0169 5.3 35.0502 5.3C36.2669 5.3 37.3252 5.59167 38.2252 6.175C39.1419 6.74167 39.8502 7.51667 40.3502 8.5C40.8502 9.46667 41.1002 10.55 41.1002 11.75C41.1002 12.9333 40.8502 14.0167 40.3502 15C39.8502 15.9833 39.1419 16.7667 38.2252 17.35C37.3252 17.9167 36.2669 18.2 35.0502 18.2ZM34.8002 16.5C35.7335 16.5 36.5252 16.2833 37.1752 15.85C37.8419 15.4167 38.3502 14.8417 38.7002 14.125C39.0502 13.3917 39.2252 12.6 39.2252 11.75C39.2252 10.8833 39.0502 10.0917 38.7002 9.375C38.3502 8.65833 37.8419 8.08333 37.1752 7.65C36.5252 7.21667 35.7335 7 34.8002 7C33.8835 7 33.1002 7.21667 32.4502 7.65C31.8002 8.08333 31.3085 8.65833 30.9752 9.375C30.6419 10.0917 30.4752 10.8833 30.4752 11.75C30.4752 12.6 30.6419 13.3917 30.9752 14.125C31.3085 14.8417 31.8002 15.4167 32.4502 15.85C33.1002 16.2833 33.8835 16.5 34.8002 16.5ZM48.8434 18.2C47.6267 18.2 46.56 17.9167 45.6434 17.35C44.7434 16.7667 44.0434 15.9833 43.5434 15C43.0434 14.0167 42.7934 12.9333 42.7934 11.75C42.7934 10.55 43.0434 9.46667 43.5434 8.5C44.0434 7.51667 44.7434 6.74167 45.6434 6.175C46.56 5.59167 47.6267 5.3 48.8434 5.3C49.8767 5.3 50.76 5.5 51.4934 5.9C52.2434 6.3 52.8517 6.84167 53.3184 7.525V5.5H55.1934V18H53.3184V16C52.8517 16.6667 52.2434 17.2 51.4934 17.6C50.76 18 49.8767 18.2 48.8434 18.2ZM49.0934 16.5C50.0267 16.5 50.81 16.2833 51.4434 15.85C52.0934 15.4167 52.585 14.8417 52.9184 14.125C53.2517 13.3917 53.4184 12.6 53.4184 11.75C53.4184 10.8833 53.2517 10.0917 52.9184 9.375C52.585 8.65833 52.0934 8.08333 51.4434 7.65C50.81 7.21667 50.0267 7 49.0934 7C48.1767 7 47.385 7.21667 46.7184 7.65C46.0517 8.08333 45.5434 8.65833 45.1934 9.375C44.8434 10.0917 44.6684 10.8833 44.6684 11.75C44.6684 12.6 44.8434 13.3917 45.1934 14.125C45.5434 14.8417 46.0517 15.4167 46.7184 15.85C47.385 16.2833 48.1767 16.5 49.0934 16.5Z" fill="#96E92C"/>
<path d="M64.1588 18V1.45H76.1088V3.25H66.0338V9H75.0088V10.825H66.0338V18H64.1588ZM83.3928 18.2C82.1261 18.2 81.0261 17.9167 80.0928 17.35C79.1594 16.7667 78.4428 15.9833 77.9428 15C77.4428 14.0167 77.1928 12.9333 77.1928 11.75C77.1928 10.55 77.4428 9.46667 77.9428 8.5C78.4428 7.51667 79.1594 6.74167 80.0928 6.175C81.0261 5.59167 82.1261 5.3 83.3928 5.3C84.6761 5.3 85.7761 5.59167 86.6928 6.175C87.6261 6.74167 88.3428 7.51667 88.8428 8.5C89.3428 9.46667 89.5928 10.55 89.5928 11.75C89.5928 12.9333 89.3428 14.0167 88.8428 15C88.3428 15.9833 87.6261 16.7667 86.6928 17.35C85.7761 17.9167 84.6761 18.2 83.3928 18.2ZM83.3928 16.5C84.3261 16.5 85.1094 16.2833 85.7428 15.85C86.3928 15.4167 86.8844 14.8417 87.2178 14.125C87.5511 13.3917 87.7178 12.6 87.7178 11.75C87.7178 10.8833 87.5511 10.0917 87.2178 9.375C86.8844 8.65833 86.3928 8.08333 85.7428 7.65C85.1094 7.21667 84.3261 7 83.3928 7C82.4761 7 81.6928 7.21667 81.0428 7.65C80.3928 8.08333 79.9011 8.65833 79.5678 9.375C79.2344 10.0917 79.0678 10.8833 79.0678 11.75C79.0678 12.6 79.2344 13.3917 79.5678 14.125C79.9011 14.8417 80.3928 15.4167 81.0428 15.85C81.6928 16.2833 82.4761 16.5 83.3928 16.5ZM97.5041 18.2C96.2374 18.2 95.1374 17.9167 94.2041 17.35C93.2708 16.7667 92.5541 15.9833 92.0541 15C91.5541 14.0167 91.3041 12.9333 91.3041 11.75C91.3041 10.55 91.5541 9.46667 92.0541 8.5C92.5541 7.51667 93.2708 6.74167 94.2041 6.175C95.1374 5.59167 96.2374 5.3 97.5041 5.3C98.7874 5.3 99.8874 5.59167 100.804 6.175C101.737 6.74167 102.454 7.51667 102.954 8.5C103.454 9.46667 103.704 10.55 103.704 11.75C103.704 12.9333 103.454 14.0167 102.954 15C102.454 15.9833 101.737 16.7667 100.804 17.35C99.8874 17.9167 98.7874 18.2 97.5041 18.2ZM97.5041 16.5C98.4374 16.5 99.2208 16.2833 99.8541 15.85C100.504 15.4167 100.996 14.8417 101.329 14.125C101.662 13.3917 101.829 12.6 101.829 11.75C101.829 10.8833 101.662 10.0917 101.329 9.375C100.996 8.65833 100.504 8.08333 99.8541 7.65C99.2208 7.21667 98.4374 7 97.5041 7C96.5874 7 95.8041 7.21667 95.1541 7.65C94.5041 8.08333 94.0124 8.65833 93.6791 9.375C93.3458 10.0917 93.1791 10.8833 93.1791 11.75C93.1791 12.6 93.3458 13.3917 93.6791 14.125C94.0124 14.8417 94.5041 15.4167 95.1541 15.85C95.8041 16.2833 96.5874 16.5 97.5041 16.5ZM111.465 18.2C110.249 18.2 109.182 17.9167 108.265 17.35C107.365 16.7667 106.665 15.9833 106.165 15C105.665 14.0167 105.415 12.9333 105.415 11.75C105.415 10.55 105.665 9.46667 106.165 8.5C106.665 7.51667 107.365 6.74167 108.265 6.175C109.182 5.59167 110.249 5.3 111.465 5.3C112.499 5.3 113.382 5.5 114.115 5.9C114.865 6.3 115.474 6.84167 115.94 7.525V0.499999H117.815V18H115.94V16C115.474 16.6667 114.865 17.2 114.115 17.6C113.382 18 112.499 18.2 111.465 18.2ZM111.715 16.5C112.649 16.5 113.432 16.2833 114.065 15.85C114.715 15.4167 115.207 14.8417 115.54 14.125C115.874 13.3917 116.04 12.6 116.04 11.75C116.04 10.8833 115.874 10.0917 115.54 9.375C115.207 8.65833 114.715 8.08333 114.065 7.65C113.432 7.21667 112.649 7 111.715 7C110.799 7 110.007 7.21667 109.34 7.65C108.674 8.08333 108.165 8.65833 107.815 9.375C107.465 10.0917 107.29 10.8833 107.29 11.75C107.29 12.6 107.465 13.3917 107.815 14.125C108.165 14.8417 108.674 15.4167 109.34 15.85C110.007 16.2833 110.799 16.5 111.715 16.5Z" fill="white"/>
</svg>
